<?xml version="1.0" standalone="no"?>
<!DOCTYPE svg PUBLIC "-//W3C//DTD SVG 20010904//EN"
 "http://www.w3.org/TR/2001/REC-SVG-20010904/DTD/svg10.dtd">
<svg version="1.0" xmlns="http://www.w3.org/2000/svg"
 width="600.000000pt" height="600.000000pt" viewBox="0 0 600.000000 600.000000"
 preserveAspectRatio="xMidYMid meet">
<metadata>
Created by potrace 1.14, written by Peter Selinger 2001-2017
</metadata>
<g transform="translate(0.000000,600.000000) scale(0.100000,-0.100000)"
fill="#000000" stroke="none">
<path d="M3804 5955 c-123 -28 -216 -113 -253 -230 -17 -55 -19 -99 -19 -515
-1 -250 -1 -465 -2 -477 l0 -23 -1302 1 -1303 2 -78 -22 c-238 -65 -407 -251
-442 -486 -7 -48 -8 -2895 -1 -2915 3 -8 7 -31 10 -51 3 -20 8 -43 11 -51 4
-10 -4 -19 -27 -29 -216 -88 -362 -296 -371 -529 -12 -288 177 -532 470 -607
15 -4 1137 -8 2491 -9 2437 -2 2465 -2 2535 18 299 83 481 347 446 643 -8 69
-9 72 -33 142 -23 69 -81 157 -145 220 -54 53 -91 77 -174 115 -36 16 -46 25
-42 37 23 59 26 216 25 1531 0 1342 -1 1466 -16 1533 -20 94 -104 239 -173
300 -84 74 -207 135 -311 152 -19 4 -168 7 -331 7 l-296 1 -1 471 c0 259 -3
486 -6 504 -22 117 -132 232 -256 268 -41 12 -353 11 -406 -1z"/>
</g>
</svg>
